GIL02_free2_ik
nRows=3
nColumns=375

# SIMM Motion File Header:
name GIL02_free2_ik
datacolumns 375
datarows 3
otherdata 1
range 0.61667000 0.63333000
endheader
time	pelvis_tx	pelvis_ty	pelvis_tz	pelvis_tilt	pelvis_list	pelvis_rotation	hip_flexion_r	hip_adduction_r	hip_rotation_r	knee_angle_r	ankle_angle_r	hip_flexion_l	hip_adduction_l	hip_rotation_l	knee_angle_l	ankle_angle_l	lumbar_extension	lumbar_bending	lumbar_rotation	subtalar_angle_r	mtp_angle_r	subtalar_angle_l	mtp_angle_l	asis_r_px	asis_r_py	asis_r_pz	asis_l_px	asis_l_py	asis_l_pz	midasis_px	midasis_py	midasis_pz	psis_r_px	psis_r_py	psis_r_pz	psis_l_px	psis_l_py	psis_l_pz	hip_r_px	hip_r_py	hip_r_pz	hip_l_px	hip_l_py	hip_l_pz	midhip_px	midhip_py	midhip_pz	epicondLat_r_px	epicondLat_r_py	epicondLat_r_pz	epicondMed_r_px	epicondMed_r_py	epicondMed_r_pz	thighwand_r_px	thighwand_r_py	thighwand_r_pz	upperleg1_r_px	upperleg1_r_py	upperleg1_r_pz	upperleg2_r_px	upperleg2_r_py	upperleg2_r_pz	malleolusLat_r_px	malleolusLat_r_py	malleolusLat_r_pz	malleolusMedv_r_px	malleolusMedv_r_py	malleolusMedv_r_pz	shankwand_r_px	shankwand_r_py	shankwand_r_pz	lowerleg1_r_px	lowerleg1_r_py	lowerleg1_r_pz	knee_r_px	knee_r_py	knee_r_pz	ankle_r_px	ankle_r_py	ankle_r_pz	toe_r_px	toe_r_py	toe_r_pz	epicondLat_l_px	epicondLat_l_py	epicondLat_l_pz	epicondMed_l_px	epicondMed_l_py	epicondMed_l_pz	thighwand_l_px	thighwand_l_py	thighwand_l_pz	upperleg1_l_px	upperleg1_l_py	upperleg1_l_pz	upperleg2_l_px	upperleg2_l_py	upperleg2_l_pz	malleolusLat_l_px	malleolusLat_l_py	malleolusLat_l_pz	malleolusMedv_l_px	malleolusMedv_l_py	malleolusMedv_l_pz	shankwand_l_px	shankwand_l_py	shankwand_l_pz	lowerleg1_l_px	lowerleg1_l_py	lowerleg1_l_pz	knee_l_px	knee_l_py	knee_l_pz	ankle_l_px	ankle_l_py	ankle_l_pz	toe_l_px	toe_l_py	toe_l_pz	subclavicle_r_px	subclavicle_r_py	subclavicle_r_pz	subclavicle_l_px	subclavicle_l_py	subclavicle_l_pz	neck_px	neck_py	neck_pz	sternalnotch_px	sternalnotch_py	sternalnotch_pz	xyphoidprocess_px	xyphoidprocess_py	xyphoidprocess_pz	midhip_tx	midhip_ty	midhip_tz	hip_r_tx	hip_r_ty	hip_r_tz	hip_l_tx	hip_l_ty	hip_l_tz	knee_r_tx	knee_r_ty	knee_r_tz	knee_l_tx	knee_l_ty	knee_l_tz	ankle_r_tx	ankle_r_ty	ankle_r_tz	ankle_l_tx	ankle_l_ty	ankle_l_tz	midasis_tx	midasis_ty	midasis_tz	asis_r_tx	asis_r_ty	asis_r_tz	asis_l_tx	asis_l_ty	asis_l_tz	psis_r_tx	psis_r_ty	psis_r_tz	psis_l_tx	psis_l_ty	psis_l_tz	epicondLat_r_tx	epicondLat_r_ty	epicondLat_r_tz	epicondLat_l_tx	epicondLat_l_ty	epicondLat_l_tz	epicondMed_r_tx	epicondMed_r_ty	epicondMed_r_tz	epicondMed_l_tx	epicondMed_l_ty	epicondMed_l_tz	malleolusLat_r_tx	malleolusLat_r_ty	malleolusLat_r_tz	malleolusLat_l_tx	malleolusLat_l_ty	malleolusLat_l_tz	malleolusMedv_r_tx	malleolusMedv_r_ty	malleolusMedv_r_tz	malleolusMedv_l_tx	malleolusMedv_l_ty	malleolusMedv_l_tz	neck_tx	neck_ty	neck_tz	subclavicle_r_tx	subclavicle_r_ty	subclavicle_r_tz	subclavicle_l_tx	subclavicle_l_ty	subclavicle_l_tz	sternalnotch_tx	sternalnotch_ty	sternalnotch_tz	xyphoidprocess_tx	xyphoidprocess_ty	xyphoidprocess_tz	thighwand_r_tx	thighwand_r_ty	thighwand_r_tz	thighwand_l_tx	thighwand_l_ty	thighwand_l_tz	upperleg1_r_tx	upperleg1_r_ty	upperleg1_r_tz	upperleg1_l_tx	upperleg1_l_ty	upperleg1_l_tz	upperleg2_r_tx	upperleg2_r_ty	upperleg2_r_tz	upperleg2_l_tx	upperleg2_l_ty	upperleg2_l_tz	shankwand_r_tx	shankwand_r_ty	shankwand_r_tz	shankwand_l_tx	shankwand_l_ty	shankwand_l_tz	lowerleg1_r_tx	lowerleg1_r_ty	lowerleg1_r_tz	lowerleg1_l_tx	lowerleg1_l_ty	lowerleg1_l_tz	toe_r_tx	toe_r_ty	toe_r_tz	toe_l_tx	toe_l_ty	toe_l_tz	ground_force_vx	ground_force_vy	ground_force_vz	ground_force_px	ground_force_py	ground_force_pz	ground_force_vx	ground_force_vy	ground_force_vz	ground_force_px	ground_force_py	ground_force_pz	ground_torque_x	ground_torque_y	ground_torque_z	ground_torque_x	ground_torque_y	ground_torque_z	ground_marker_px	ground_marker_py	ground_marker_pz	ground_marker_px	ground_marker_py	ground_marker_pz	ground_marker_px	ground_marker_py	ground_marker_pz	ground_marker_px	ground_marker_py	ground_marker_pz	ground_marker_px	ground_marker_py	ground_marker_pz	ground_marker_px	ground_marker_py	ground_marker_pz	ground_marker_px	ground_marker_py	ground_marker_pz	ground_marker_px	ground_marker_py	ground_marker_pz	ground_marker_px	ground_marker_py	ground_marker_pz	ground_marker_px	ground_marker_py	ground_marker_pz	ground_marker_px	ground_marker_py	ground_marker_pz	ground_marker_px	ground_marker_py	ground_marker_pz	ground_marker_px	ground_marker_py	ground_marker_pz	ground_marker_px	ground_marker_py	ground_marker_pz	ground_marker_px	ground_marker_py	ground_marker_pz	ground_marker_px	ground_marker_py	ground_marker_pz	ground_marker_px	ground_marker_py	ground_marker_pz	ground_marker_px	ground_marker_py	ground_marker_pz	ground_marker_px	ground_marker_py	ground_marker_pz	ground_marker_px	ground_marker_py	ground_marker_pz	ground_marker_px	ground_marker_py	ground_marker_pz	ground_marker_px	ground_marker_py	ground_marker_pz	ground_marker_px	ground_marker_py	ground_marker_pz	ground_marker_px	ground_marker_py	ground_marker_pz	ground_marker_px	ground_marker_py	ground_marker_pz	ground_marker_px	ground_marker_py	ground_marker_pz	ground_marker_px	ground_marker_py	ground_marker_pz	ground_marker_px	ground_marker_py	ground_marker_pz	ground_marker_px	ground_marker_py	ground_marker_pz	ground_marker_px	ground_marker_py	ground_marker_pz	ground_marker_px	ground_marker_py	ground_marker_pz	ground_marker_px	ground_marker_py	ground_marker_pz	ground_marker_px	ground_marker_py	ground_marker_pz	ground_marker_px	ground_marker_py	ground_marker_pz	ground_marker_px	ground_marker_py	ground_marker_pz	ground_marker_px	ground_marker_py	ground_marker_pz	ground_marker_px	ground_marker_py	ground_marker_pz
      0.61667000	      1.75648598	      0.91827370	     -0.20877575	     -0.57490155	      5.39778864	     -5.82703947	    -12.91418425	     -6.01146231	     13.15822754	    -23.36446151	      7.53486175	     23.91132701	      4.97475262	      1.50822790	    -10.64103426	    -10.17930272	     -1.21063064	     -3.93386480	      9.70968255	      0.00000000	      0.00000000	      0.00000000	      0.00000000	      1.79057941	      0.90671644	     -0.08787964	      1.81727226	      0.93514565	     -0.32282499	      1.76944131	      0.91801930	     -0.20745929	      1.61599651	      0.97309724	     -0.18761435	      1.63027579	      0.97979702	     -0.27213073	      1.68248798	      0.85114948	     -0.14427070	      1.69840654	      0.86553005	     -0.29814661	      1.69044726	      0.85833976	     -0.22120866	      1.61223496	      0.42800571	     -0.07724462	      1.56937627	      0.44562968	     -0.17930280	      1.69995824	      0.52315858	     -0.01623192	      1.71613604	      0.58608064	     -0.08689203	      1.68595869	      0.50373020	     -0.10574059	      1.32487284	      0.12089254	     -0.08229682	      1.34149826	      0.12370066	     -0.15215402	      1.43570698	      0.20639969	     -0.00300082	      1.39646067	      0.19361526	     -0.07257937	      1.58038432	      0.44239103	     -0.14839776	      1.34089337	      0.12557042	     -0.12813155	      1.42657557	      0.03031110	     -0.11283213	      1.88836200	      0.46773649	     -0.34724822	      1.86065859	      0.46708490	     -0.24010865	      1.97763833	      0.61854634	     -0.26684925	      1.90113089	      0.64971181	     -0.31941339	      1.91478856	      0.56383232	     -0.31897137	      1.92435120	      0.06993082	     -0.31982150	      1.93807056	      0.08721464	     -0.25649048	      1.93521335	      0.21146601	     -0.40245601	      1.91731074	      0.17090267	     -0.33425429	      1.85663818	      0.47694030	     -0.28141299	      1.93980409	      0.08808974	     -0.27687433	      2.05978616	      0.05647292	     -0.30053223	      1.71703116	      1.32138758	     -0.14830571	      1.72262553	      1.32835258	     -0.25626720	      1.58574842	      1.39058241	     -0.19552427	      1.70220150	      1.33161982	     -0.19986247	      1.79394687	      1.17383182	     -0.21704891	      1.69126400	      0.86663900	     -0.21571600	      1.67664100	      0.83879000	     -0.14953600	      1.69260100	      0.84936200	     -0.29874200	      1.58158100	      0.44415100	     -0.13791700	      1.85797300	      0.45964700	     -0.27710700	      1.33438600	      0.12259900	     -0.15105100	      1.94235700	      0.07181500	     -0.26115000	      1.77098000	      0.92965700	     -0.20883800	      1.75809200	      0.92112100	     -0.08835700	      1.78386800	      0.93819400	     -0.32931800	      1.58300400	      0.97164100	     -0.19422000	      1.59662300	      0.97170900	     -0.27854000	      1.59023800	      0.44376900	     -0.08006200	      1.86726900	      0.46041300	     -0.33435200	      1.57890500	      0.44565000	     -0.19126100	      1.84474700	      0.45798100	     -0.21712300	      1.32294100	      0.12985900	     -0.11341700	      1.92677400	      0.06696700	     -0.29657200	      1.34644800	      0.13110300	     -0.17934000	      1.94465800	      0.08710900	     -0.23572900	      1.58723100	      1.39782300	     -0.19545200	      1.71627900	      1.31987000	     -0.14867500	      1.72204000	      1.32628200	     -0.25525800	      1.70160300	      1.33102600	     -0.19971400	      1.78415200	      1.16788400	     -0.21665000	      1.66140600	      0.53850100	     -0.00491300	      1.95807800	      0.61052300	     -0.27356000	      1.68269600	      0.60163400	     -0.06954600	      1.87776700	      0.62755500	     -0.32529900	      1.66801000	      0.51603700	     -0.09418000	      1.89264900	      0.54122800	     -0.31279600	      1.41752900	      0.22544900	     -0.02271100	      1.92425900	      0.20583300	     -0.38444100	      1.38783000	      0.20423500	     -0.09716100	      1.91521900	      0.16782500	     -0.31467600	      1.42122500	      0.04081300	     -0.13752500	      2.06430100	      0.04864900	     -0.26790900	    145.44979959	    480.20172730	    -13.36386860	      1.42402148	      0.00000000	     -0.14380823	    -79.48934625	    360.20086521	     -3.81305478	      1.94314954	      0.00000000	     -0.25538062	      0.00000000	      1.59399402	      0.00000000	      0.00000000	      1.38453149	      0.00000000	      1.69126391	      0.86663878	     -0.21571577	      1.67664087	      0.83878982	     -0.14953619	      1.69260132	      0.84936172	     -0.29874238	      1.58158135	      0.44415122	     -0.13791710	      1.85797274	      0.45964664	     -0.27710658	      1.33438575	      0.12259853	     -0.15105066	      1.94235718	      0.07181468	     -0.26115036	      1.77098012	      0.92965710	     -0.20883769	      1.75809240	      0.92112058	     -0.08835743	      1.78386784	      0.93819368	     -0.32931796	      1.58300447	      0.97164071	     -0.19421971	      1.59662282	      0.97170901	     -0.27854013	      1.59023833	      0.44376931	     -0.08006245	      1.86726892	      0.46041331	     -0.33435163	      1.57890475	      0.44565004	     -0.19126102	      1.84474695	      0.45798108	     -0.21712346	      1.32294142	      0.12985930	     -0.11341678	      1.92677402	      0.06696679	     -0.29657155	      1.34644794	      0.13110298	     -0.17933953	      1.94465804	      0.08710914	     -0.23572892	      1.58723092	      1.39782321	     -0.19545171	      1.71627939	      1.31987023	     -0.14867502	      1.72203970	      1.32628202	     -0.25525835	      1.70160294	      1.33102632	     -0.19971417	      1.78415191	      1.16788375	     -0.21664996	      1.66140556	      0.53850120	     -0.00491276	      1.95807803	      0.61052281	     -0.27356017	      1.68269622	      0.60163438	     -0.06954621	      1.87776732	      0.62755495	     -0.32529917	      1.66800976	      0.51603740	     -0.09417951	      1.89264870	      0.54122812	     -0.31279647	      1.41752851	      0.22544907	     -0.02271150	      1.92425883	      0.20583276	     -0.38444060	      1.38783026	      0.20423540	     -0.09716064	      1.91521871	      0.16782507	     -0.31467625	      1.42122531	      0.04081295	     -0.13752510	      2.06430078	      0.04864946	     -0.26790899
      0.62500000	      1.76837673	      0.91972391	     -0.21083297	     -0.70372881	      5.81040018	     -5.59706717	    -12.35482144	     -6.65156194	     12.71153224	    -25.03749413	      4.79688465	     23.72794662	      5.72559984	      2.19153166	    -11.39049921	     -9.63751245	     -0.86297659	     -4.34252121	      9.51599814	      0.00000000	      0.00000000	      0.00000000	      0.00000000	      1.80292060	      0.90722777	     -0.09015832	      1.82874839	      0.93731015	     -0.32499448	      1.78133661	      0.91943611	     -0.20956918	      1.62807381	      0.97465134	     -0.18872445	      1.64203527	      0.98193729	     -0.27324543	      1.69450590	      0.85227029	     -0.14652608	      1.70984998	      0.86773659	     -0.30035505	      1.70217794	      0.86000344	     -0.22344056	      1.62704678	      0.42908838	     -0.07692023	      1.58426737	      0.44576128	     -0.17917129	      1.71399089	      0.52523494	     -0.01635163	      1.72987198	      0.58781362	     -0.08738302	      1.70030127	      0.50513725	     -0.10576041	      1.33293786	      0.12739557	     -0.07897520	      1.34966151	      0.12909623	     -0.14884469	      1.44557661	      0.21128655	     -0.00050004	      1.40609950	      0.19862857	     -0.06997105	      1.59548502	      0.44248846	     -0.14827305	      1.34908387	      0.13123378	     -0.12484389	      1.42803554	      0.03039118	     -0.10911958	      1.89789670	      0.46877419	     -0.34727194	      1.86892613	      0.46828585	     -0.24046718	      1.98715248	      0.61901954	     -0.26580041	      1.91146643	      0.65066431	     -0.31925968	      1.92458402	      0.56470156	     -0.31866985	      1.92599083	      0.07001850	     -0.32039079	      1.93930588	      0.08689852	     -0.25686486	      1.94050668	      0.21150017	     -0.40255457	      1.92104681	      0.17113779	     -0.33466087	      1.86562345	      0.47816355	     -0.28178533	      1.94129095	      0.08778481	     -0.27722528	      2.06118536	      0.05502031	     -0.29973827	      1.72797616	      1.32323569	     -0.14964199	      1.73352222	      1.33015672	     -0.25760879	      1.59645048	      1.39196095	     -0.19687022	      1.71310030	      1.33338800	     -0.20120124	      1.80537212	      1.17589963	     -0.21831739	      1.70359800	      0.86871600	     -0.21778900	      1.68863900	      0.83977500	     -0.15137400	      1.70410100	      0.85142900	     -0.30055200	      1.59629700	      0.44384400	     -0.13690000	      1.86687900	      0.46096800	     -0.27735300	      1.34232300	      0.12824800	     -0.14978400	      1.94360000	      0.07146800	     -0.26058200	      1.78291800	      0.93093100	     -0.21032700	      1.77045200	      0.92153600	     -0.09005200	      1.79538400	      0.94032700	     -0.33060300	      1.59507400	      0.97313500	     -0.19451600	      1.60807100	      0.97376600	     -0.27893300	      1.60487400	      0.44395900	     -0.07903200	      1.87688000	      0.46174400	     -0.33447800	      1.59594600	      0.44275300	     -0.18954300	      1.85276800	      0.45969100	     -0.21858400	      1.33039800	      0.13632100	     -0.11246600	      1.92889600	      0.06702800	     -0.29643000	      1.35451700	      0.13637800	     -0.17784800	      1.94635100	      0.08694200	     -0.23517000	      1.59817000	      1.39906400	     -0.19677600	      1.72691000	      1.32155800	     -0.14991700	      1.73281300	      1.32800600	     -0.25650300	      1.71236000	      1.33257900	     -0.20113500	      1.79515500	      1.16971100	     -0.21783600	      1.67523100	      0.53911100	     -0.00411300	      1.96802100	      0.61123900	     -0.27238600	      1.69695200	      0.60153400	     -0.06955400	      1.88921300	      0.62974600	     -0.32495900	      1.68329800	      0.51589400	     -0.09260400	      1.90305900	      0.54310700	     -0.31283500	      1.42584800	      0.23138500	     -0.02161400	      1.93140600	      0.20597800	     -0.38393900	      1.39700800	      0.21000600	     -0.09612600	      1.92040200	      0.16744100	     -0.31405300	      1.42324900	      0.04071600	     -0.13746000	      2.06613900	      0.04666900	     -0.26695700	    137.02839826	    398.26935140	    -10.19974640	      1.42358472	      0.00000000	     -0.14359320	    -85.48087561	    387.76336840	      3.46553788	      1.94825122	      0.00000000	     -0.25652579	      0.00000000	      1.33826416	      0.00000000	      0.00000000	      1.29905859	      0.00000000	      1.70359850	      0.86871600	     -0.21778865	      1.68863940	      0.83977544	     -0.15137383	      1.70410085	      0.85142857	     -0.30055204	      1.59629738	      0.44384399	     -0.13689975	      1.86687863	      0.46096814	     -0.27735254	      1.34232295	      0.12824756	     -0.14978389	      1.94360042	      0.07146784	     -0.26058194	      1.78291845	      0.93093145	     -0.21032713	      1.77045250	      0.92153609	     -0.09005160	      1.79538429	      0.94032687	     -0.33060268	      1.59507382	      0.97313488	     -0.19451605	      1.60807085	      0.97376615	     -0.27893293	      1.60487354	      0.44395927	     -0.07903191	      1.87688029	      0.46174353	     -0.33447844	      1.59594560	      0.44275275	     -0.18954250	      1.85276794	      0.45969138	     -0.21858414	      1.33039808	      0.13632050	     -0.11246599	      1.92889595	      0.06702796	     -0.29642981	      1.35451722	      0.13637801	     -0.17784788	      1.94635105	      0.08694155	     -0.23516972	      1.59817028	      1.39906383	     -0.19677588	      1.72690988	      1.32155800	     -0.14991716	      1.73281300	      1.32800627	     -0.25650325	      1.71235955	      1.33257949	     -0.20113496	      1.79515517	      1.16971099	     -0.21783619	      1.67523098	      0.53911078	     -0.00411271	      1.96802056	      0.61123890	     -0.27238601	      1.69695234	      0.60153407	     -0.06955362	      1.88921297	      0.62974560	     -0.32495886	      1.68329835	      0.51589417	     -0.09260391	      1.90305948	      0.54310727	     -0.31283522	      1.42584789	      0.23138550	     -0.02161438	      1.93140650	      0.20597798	     -0.38393876	      1.39700842	      0.21000566	     -0.09612639	      1.92040157	      0.16744098	     -0.31405330	      1.42324924	      0.04071622	     -0.13745955	      2.06613851	      0.04666873	     -0.26695731
      0.63333000	      1.78013132	      0.92133852	     -0.21288121	     -0.79706031	      6.23943291	     -5.36233559	    -11.66729430	     -7.31977454	     12.24259225	    -26.86302678	      1.56213859	     23.44439230	      6.50815567	      2.87163356	    -12.06137396	     -8.87878821	     -0.53865259	     -4.85354142	      9.52066906	      0.00000000	      0.00000000	      0.00000000	      0.00000000	      1.81513895	      0.90789160	     -0.09244264	      1.84007045	      0.93971391	     -0.32714631	      1.79309576	      0.92102586	     -0.21167123	      1.63998409	      0.97626369	     -0.18980100	      1.65361861	      0.98417045	     -0.27431956	      1.70643462	      0.85348926	     -0.14879112	      1.72118645	      0.87009728	     -0.30255898	      1.71381054	      0.86179327	     -0.22567505	      1.64296015	      0.43014738	     -0.07646358	      1.60028335	      0.44570114	     -0.17893365	      1.72879777	      0.52755607	     -0.01633504	      1.74424635	      0.58980281	     -0.08775242	      1.71553763	      0.50671591	     -0.10563850	      1.34229676	      0.13388228	     -0.07558098	      1.35914577	      0.13442628	     -0.14543893	      1.45662421	      0.21619911	      0.00211530	      1.41697384	      0.20361103	     -0.06726969	      1.61170610	      0.44240480	     -0.14803233	      1.35858287	      0.13684838	     -0.12146483	      1.42953687	      0.03030998	     -0.10518751	      1.90685170	      0.46976847	     -0.34726947	      1.87663562	      0.46950367	     -0.24080958	      1.99624564	      0.61936808	     -0.26476766	      1.92142059	      0.65155797	     -0.31910629	      1.93390296	      0.56550190	     -0.31836111	      1.92716115	      0.07025967	     -0.32091481	      1.94006461	      0.08676513	     -0.25720578	      1.94527225	      0.21159912	     -0.40260818	      1.92428256	      0.17148108	     -0.33502609	      1.87404114	      0.47939458	     -0.28213499	      1.94229847	      0.08765263	     -0.27754035	      2.06220103	      0.05420225	     -0.29897549	      1.73889076	      1.32526852	     -0.15154629	      1.74400349	      1.33200568	     -0.25954611	      1.60694249	      1.39343492	     -0.19840425	      1.72378372	      1.33527045	     -0.20306770	      1.81655251	      1.17808027	     -0.22023858	      1.71557800	      0.87074000	     -0.21956100	      1.70062400	      0.84098000	     -0.15332800	      1.71558200	      0.85375900	     -0.30246500	      1.61211800	      0.44349100	     -0.13581700	      1.87534000	      0.46223900	     -0.27762900	      1.35166100	      0.13397900	     -0.14854800	      1.94441300	      0.07121800	     -0.26000400	      1.79479100	      0.93249300	     -0.21190800	      1.78275200	      0.92220800	     -0.09188500	      1.80682800	      0.94277700	     -0.33193100	      1.60704300	      0.97477300	     -0.19473800	      1.61949200	      0.97599000	     -0.27929400	      1.62057600	      0.44415700	     -0.07793600	      1.88604400	      0.46299100	     -0.33462700	      1.61274800	      0.44051200	     -0.18801900	      1.86037100	      0.46285900	     -0.21786600	      1.33922900	      0.14292100	     -0.11159600	      1.93051300	      0.06713100	     -0.29621300	      1.36457100	      0.14182100	     -0.17640800	      1.94760700	      0.08695100	     -0.23467600	      1.60879100	      1.40025300	     -0.19861500	      1.73720400	      1.32307700	     -0.15168200	      1.74323300	      1.32989200	     -0.25812300	      1.72309100	      1.33430000	     -0.20253700	      1.80585200	      1.17159800	     -0.21996500	      1.68978700	      0.53980000	     -0.00322700	      1.97763000	      0.61179100	     -0.27127500	      1.71173500	      0.60176000	     -0.06925000	      1.90044700	      0.63179600	     -0.32463200	      1.69879100	      0.51528000	     -0.09141500	      1.91307300	      0.54517500	     -0.31181400	      1.43534700	      0.23754200	     -0.02058300	      1.93779500	      0.20605900	     -0.38340800	      1.40714900	      0.21599300	     -0.09530300	      1.92388600	      0.16717300	     -0.31357700	      1.42558700	      0.04063700	     -0.13747200	      2.06752800	      0.04524900	     -0.26627300	    120.28676226	    307.24385507	     -7.53503689	      1.42325439	      0.00000000	     -0.14340335	    -86.89176723	    408.96750728	      9.54541453	      1.95152185	      0.00000000	     -0.25712933	      0.00000000	      1.10711584	      0.00000000	      0.00000000	      1.20823584	      0.00000000	      1.71557820	      0.87073994	     -0.21956092	      1.70062423	      0.84098029	     -0.15332788	      1.71558237	      0.85375911	     -0.30246520	      1.61211812	      0.44349054	     -0.13581745	      1.87533987	      0.46223915	     -0.27762866	      1.35166097	      0.13397910	     -0.14854819	      1.94441271	      0.07121793	     -0.26000378	      1.79479051	      0.93249261	     -0.21190831	      1.78275239	      0.92220843	     -0.09188514	      1.80682850	      0.94277680	     -0.33193147	      1.60704267	      0.97477287	     -0.19473781	      1.61949193	      0.97599018	     -0.27929354	      1.62057638	      0.44415700	     -0.07793599	      1.88604438	      0.46299130	     -0.33462733	      1.61274803	      0.44051248	     -0.18801905	      1.86037135	      0.46285936	     -0.21786630	      1.33922863	      0.14292124	     -0.11159588	      1.93051338	      0.06713058	     -0.29621294	      1.36457145	      0.14182132	     -0.17640834	      1.94760656	      0.08695070	     -0.23467568	      1.60879135	      1.40025330	     -0.19861506	      1.73720419	      1.32307661	     -0.15168235	      1.74323344	      1.32989168	     -0.25812349	      1.72309053	      1.33429992	     -0.20253666	      1.80585158	      1.17159808	     -0.21996531	      1.68978691	      0.53980041	     -0.00322718	      1.97762954	      0.61179090	     -0.27127486	      1.71173525	      0.60176027	     -0.06924991	      1.90044689	      0.63179553	     -0.32463172	      1.69879079	      0.51528049	     -0.09141522	      1.91307294	      0.54517525	     -0.31181425	      1.43534696	      0.23754241	     -0.02058315	      1.93779516	      0.20605886	     -0.38340753	      1.40714908	      0.21599275	     -0.09530339	      1.92388558	      0.16717266	     -0.31357679	      1.42558742	      0.04063727	     -0.13747218	      2.06752753	      0.04524946	     -0.26627311
